<svg width="8" height="12" viewBox="0 0 8 12" fill="none" xmlns="http://www.w3.org/2000/svg">
<path d="M4 11.5C4.99456 11.5 5.94839 11.1049 6.65165 10.4017C7.35491 9.69839 7.75 8.74456 7.75 7.75C7.75 7.317 7.635 6.9015 7.5 6.515C6.6665 7.3385 6.0335 7.75 5.6 7.75C7.5975 4.25 6.5 2.75 3.5 0.75C3.75 3.25 2.102 4.387 1.431 5.0185C0.883664 5.53334 0.50362 6.20074 0.340143 6.93416C0.176666 7.66759 0.237297 8.43321 0.514174 9.13177C0.791052 9.83032 1.27141 10.4296 1.89295 10.8519C2.5145 11.2741 3.24858 11.4999 4 11.5ZM4.355 2.6175C5.9755 3.9925 5.9835 5.061 4.7315 7.2545C4.351 7.921 4.8325 8.75 5.6 8.75C5.944 8.75 6.292 8.65 6.6595 8.4525C6.55057 8.86399 6.3476 9.24458 6.06658 9.56429C5.78556 9.884 5.43415 10.1341 5.04004 10.2949C4.64592 10.4558 4.21985 10.5229 3.79538 10.491C3.37091 10.4592 2.95962 10.3293 2.5939 10.1115C2.22819 9.89364 1.91803 9.59391 1.68784 9.23585C1.45766 8.87779 1.31374 8.47118 1.26741 8.04805C1.22108 7.62491 1.27361 7.1968 1.42087 6.79741C1.56812 6.39803 1.80608 6.03829 2.116 5.7465C2.179 5.6875 2.4985 5.404 2.5125 5.3915C2.7245 5.2015 2.899 5.033 3.0715 4.8485C3.6865 4.1895 4.1285 3.4585 4.3545 2.6175H4.355Z" fill="#0C1230"/>
</svg>
