<svg width="57" height="56" viewBox="0 0 57 56" fill="none" xmlns="http://www.w3.org/2000/svg">
<rect x="0.333374" width="56" height="56" rx="12" fill="#F01C21"/>
<rect x="0.333374" width="56" height="56" rx="12" fill="white" fill-opacity="0.85"/>
<g clip-path="url(#clip0_1_327)">
<path d="M19.3334 19H37.3334C37.5986 19 37.8529 19.1054 38.0405 19.2929C38.228 19.4804 38.3334 19.7348 38.3334 20V36C38.3334 36.2652 38.228 36.5196 38.0405 36.7071C37.8529 36.8946 37.5986 37 37.3334 37H19.3334C19.0682 37 18.8138 36.8946 18.6263 36.7071C18.4387 36.5196 18.3334 36.2652 18.3334 36V20C18.3334 19.7348 18.4387 19.4804 18.6263 19.2929C18.8138 19.1054 19.0682 19 19.3334 19ZM36.3334 27H20.3334V35H36.3334V27ZM36.3334 25V21H20.3334V25H36.3334ZM30.3334 31H34.3334V33H30.3334V31Z" fill="#0C1230"/>
</g>
<defs>
<clipPath id="clip0_1_327">
<rect width="24" height="24" fill="white" transform="translate(16.3334 16)"/>
</clipPath>
</defs>
</svg>
