<svg width="56" height="56" viewBox="0 0 56 56" fill="none" xmlns="http://www.w3.org/2000/svg">
<rect x="1.52588e-05" width="56" height="56" rx="12" fill="#F01C21"/>
<rect x="1.52588e-05" width="56" height="56" rx="12" fill="white" fill-opacity="0.85"/>
<g clip-path="url(#clip0_1_321)">
<path d="M18 25.5V20C18 19.7348 18.1054 19.4804 18.2929 19.2929C18.4804 19.1054 18.7348 19 19 19H37C37.2652 19 37.5196 19.1054 37.7071 19.2929C37.8947 19.4804 38 19.7348 38 20V25.5C37.337 25.5 36.7011 25.7634 36.2322 26.2322C35.7634 26.7011 35.5 27.337 35.5 28C35.5 28.663 35.7634 29.2989 36.2322 29.7678C36.7011 30.2366 37.337 30.5 38 30.5V36C38 36.2652 37.8947 36.5196 37.7071 36.7071C37.5196 36.8946 37.2652 37 37 37H19C18.7348 37 18.4804 36.8946 18.2929 36.7071C18.1054 36.5196 18 36.2652 18 36V30.5C18.6631 30.5 19.2989 30.2366 19.7678 29.7678C20.2366 29.2989 20.5 28.663 20.5 28C20.5 27.337 20.2366 26.7011 19.7678 26.2322C19.2989 25.7634 18.6631 25.5 18 25.5ZM20 23.968C20.7512 24.3403 21.3835 24.9151 21.8255 25.6275C22.2676 26.3399 22.5018 27.1616 22.5018 28C22.5018 28.8384 22.2676 29.6601 21.8255 30.3725C21.3835 31.085 20.7512 31.6597 20 32.032V35H36V32.032C35.2488 31.6597 34.6165 31.085 34.1745 30.3725C33.7325 29.6601 33.4983 28.8384 33.4983 28C33.4983 27.1616 33.7325 26.3399 34.1745 25.6275C34.6165 24.9151 35.2488 24.3403 36 23.968V21H20V23.968ZM25 25H31V27H25V25ZM25 29H31V31H25V29Z" fill="#0C1230"/>
</g>
<defs>
<clipPath id="clip0_1_321">
<rect width="24" height="24" fill="white" transform="translate(16 16)"/>
</clipPath>
</defs>
</svg>
