<svg width="57" height="56" viewBox="0 0 57 56" fill="none" xmlns="http://www.w3.org/2000/svg">
<rect x="0.666687" width="56" height="56" rx="12" fill="#F01C21"/>
<rect x="0.666687" width="56" height="56" rx="12" fill="white" fill-opacity="0.85"/>
<g clip-path="url(#clip0_1_315)">
<path d="M26.6667 27V24L31.6667 28L26.6667 32V29H17.6667V27H26.6667ZM19.1247 31H21.2487C21.9467 32.7191 23.2204 34.1422 24.8518 35.0259C26.4832 35.9097 28.371 36.1991 30.1922 35.8447C32.0135 35.4904 33.655 34.5142 34.836 33.0832C36.017 31.6523 36.6642 29.8554 36.6667 28C36.6677 26.1427 36.0225 24.3428 34.8416 22.9092C33.6607 21.4756 32.0178 20.4976 30.1947 20.1428C28.3715 19.7881 26.4817 20.0787 24.8495 20.965C23.2172 21.8512 21.9442 23.2778 21.2487 25H19.1247C20.3987 20.943 24.1887 18 28.6667 18C34.1897 18 38.6667 22.477 38.6667 28C38.6667 33.523 34.1897 38 28.6667 38C24.1887 38 20.3987 35.057 19.1247 31Z" fill="#0C1230"/>
</g>
<defs>
<clipPath id="clip0_1_315">
<rect width="24" height="24" fill="white" transform="translate(16.6667 16)"/>
</clipPath>
</defs>
</svg>
